<svg width="24" height="24" viewBox="0 0 24 24" fill="none" xmlns="http://www.w3.org/2000/svg">
<path d="M8.5 10.5H15.5" stroke="#141414" stroke-width="1.5" stroke-linecap="round" stroke-linejoin="round"/>
<path d="M7.00003 18.43H11L15.45 21.39C15.6004 21.489 15.7748 21.5456 15.9547 21.5538C16.1346 21.562 16.3134 21.5214 16.4721 21.4364C16.6309 21.3514 16.7637 21.2251 16.8566 21.0708C16.9496 20.9165 16.9991 20.74 17 20.56V18.43C17.6671 18.4702 18.3352 18.3685 18.9601 18.1314C19.5849 17.8944 20.1524 17.5275 20.625 17.0549C21.0976 16.5823 21.4645 16.0149 21.7015 15.39C21.9385 14.7651 22.0403 14.0971 22 13.43V7.42997C22.0403 6.76286 21.9385 6.0948 21.7015 5.46993C21.4645 4.84506 21.0976 4.27759 20.625 3.80501C20.1524 3.33244 19.5849 2.96552 18.9601 2.72849C18.3352 2.49145 17.6671 2.38971 17 2.42997H7.00003C6.33293 2.38971 5.66487 2.49145 5.04 2.72849C4.41512 2.96552 3.84766 3.33244 3.37508 3.80501C2.90251 4.27759 2.53559 4.84506 2.29855 5.46993C2.06152 6.0948 1.95977 6.76286 2.00003 7.42997V13.43C1.95977 14.0971 2.06152 14.7651 2.29855 15.39C2.53559 16.0149 2.90251 16.5823 3.37508 17.0549C3.84766 17.5275 4.41512 17.8944 5.04 18.1314C5.66487 18.3685 6.33293 18.4702 7.00003 18.43V18.43Z" stroke="#141414" stroke-width="1.5" stroke-linecap="round" stroke-linejoin="round"/>
</svg>
